<svg width="24" height="24" viewBox="0 0 24 24" fill="none" xmlns="http://www.w3.org/2000/svg">
<path fill-rule="evenodd" clip-rule="evenodd" d="M11 5.49941C9.54131 5.49941 8.14236 6.07887 7.11091 7.11032C6.07946 8.14177 5.5 9.54072 5.5 10.9994C5.5 12.4581 6.07946 13.857 7.11091 14.8885C8.14236 15.9199 9.54131 16.4994 11 16.4994C12.4587 16.4994 13.8576 15.9199 14.8891 14.8885C15.9205 13.857 16.5 12.4581 16.5 10.9994C16.5 9.54072 15.9205 8.14177 14.8891 7.11032C13.8576 6.07887 12.4587 5.49941 11 5.49941ZM4 10.9994C4.00009 9.88008 4.26861 8.77709 4.78303 7.78297C5.29745 6.78885 6.04276 5.93259 6.95645 5.28601C7.87015 4.63943 8.92557 4.22138 10.0342 4.06695C11.1428 3.91251 12.2723 4.02619 13.3279 4.39843C14.3836 4.77068 15.3345 5.39065 16.101 6.20633C16.8676 7.02201 17.4273 8.00961 17.7333 9.0863C18.0393 10.163 18.0827 11.2974 17.8597 12.3943C17.6368 13.4912 17.154 14.5186 16.452 15.3904L19.78 18.7194C19.8537 18.7881 19.9128 18.8709 19.9538 18.9629C19.9948 19.0549 20.0168 19.1542 20.0186 19.2549C20.0204 19.3556 20.0018 19.4556 19.9641 19.549C19.9264 19.6424 19.8703 19.7272 19.799 19.7984C19.7278 19.8697 19.643 19.9258 19.5496 19.9635C19.4562 20.0013 19.3562 20.0198 19.2555 20.018C19.1548 20.0162 19.0555 19.9942 18.9635 19.9532C18.8715 19.9122 18.7887 19.8531 18.72 19.7794L15.391 16.4514C14.3625 17.2798 13.1207 17.8004 11.809 17.953C10.4973 18.1056 9.16912 17.8841 7.97795 17.3139C6.78677 16.7438 5.78117 15.8484 5.07727 14.731C4.37338 13.6137 3.99991 12.32 4 10.9994Z" fill="#5F6571"/>
</svg>
