<svg width="140" height="48" viewBox="0 0 140 48" fill="none" xmlns="http://www.w3.org/2000/svg">
<path d="M58.0604 27.2484V27.5527C58.0599 27.6149 58.0769 27.676 58.1094 27.729C58.1419 27.7819 58.1886 27.8245 58.2441 27.8518C58.2996 27.8791 58.3616 27.89 58.4229 27.8833C58.4843 27.8765 58.5426 27.8524 58.5909 27.8137C58.9839 27.4911 59.419 27.2243 59.884 27.0209C60.549 26.7343 61.2656 26.5893 61.9888 26.5949C63.6069 26.5949 64.9836 27.2121 66.1189 28.4464C67.2542 29.6808 67.8202 31.2632 67.817 33.1937C67.817 35.057 67.2346 36.6149 66.0697 37.8674C64.9048 39.1199 63.5174 39.7462 61.9078 39.7462C61.224 39.7521 60.5459 39.6214 59.9126 39.3618C59.4445 39.1594 59.0062 38.8932 58.61 38.5705C58.5617 38.5315 58.5035 38.507 58.442 38.4999C58.3805 38.4929 58.3183 38.5036 58.2626 38.5307C58.2069 38.5579 58.16 38.6004 58.1273 38.6534C58.0946 38.7064 58.0774 38.7676 58.0778 38.83V43.6686C58.0778 43.7566 58.0432 43.8409 57.9815 43.9031C57.9199 43.9653 57.8362 44.0002 57.749 44.0002H55.2995C55.2123 44.0002 55.1287 43.9653 55.067 43.9031C55.0053 43.8409 54.9707 43.7566 54.9707 43.6686V27.2484C54.9707 27.1604 55.0053 27.0761 55.067 27.0139C55.1287 26.9517 55.2123 26.9168 55.2995 26.9168H57.7315C57.8188 26.9168 57.9024 26.9517 57.9641 27.0139C58.0257 27.0761 58.0604 27.1604 58.0604 27.2484ZM61.3327 29.4907C60.8784 29.4775 60.4263 29.5609 60.006 29.7352C59.5856 29.9096 59.2064 30.1712 58.8928 30.503C58.2468 31.1767 57.9237 32.0576 57.9237 33.1457C57.9237 34.2573 58.2468 35.1558 58.8928 35.8413C59.3975 36.3908 60.078 36.7435 60.8149 36.8375C61.405 36.9206 62.0064 36.846 62.5589 36.6211C63.1114 36.3962 63.5957 36.029 63.9633 35.5562C64.4718 34.866 64.7338 34.0227 64.7067 33.1633C64.7067 32.0955 64.389 31.2162 63.7536 30.5254C63.4466 30.189 63.0717 29.9227 62.6541 29.7445C62.2365 29.5663 61.786 29.4803 61.3327 29.4923V29.4907Z" fill="black"/>
<path d="M78.7012 26.9168H81.1554C81.1986 26.9168 81.2414 26.9253 81.2813 26.942C81.3212 26.9587 81.3574 26.9831 81.3879 27.0139C81.4185 27.0447 81.4427 27.0812 81.4592 27.1214C81.4757 27.1617 81.4842 27.2048 81.4842 27.2483V39.1006C81.4842 39.1886 81.4496 39.2729 81.3879 39.3351C81.3263 39.3973 81.2426 39.4322 81.1554 39.4322H78.7012C78.614 39.4322 78.5303 39.3973 78.4687 39.3351C78.407 39.2729 78.3723 39.1886 78.3723 39.1006V38.838C78.3721 38.7757 78.3544 38.7148 78.3214 38.6621C78.2884 38.6095 78.2413 38.5673 78.1856 38.5404C78.1299 38.5135 78.0678 38.5029 78.0064 38.51C77.9451 38.517 77.8869 38.5413 77.8386 38.5801C77.4449 38.9017 77.0093 39.1674 76.544 39.3697C75.9135 39.6297 75.2379 39.7604 74.5567 39.7541C72.9555 39.7488 71.5724 39.1199 70.4075 37.8674C69.2426 36.6149 68.6602 35.057 68.6602 33.1937C68.6602 31.2621 69.2262 29.6796 70.3583 28.4464C71.4904 27.2131 72.8644 26.5959 74.4805 26.5948C75.2005 26.5902 75.9137 26.7353 76.5757 27.0209C77.0331 27.2236 77.4607 27.4888 77.8465 27.8089C77.8951 27.8474 77.9534 27.8713 78.0148 27.878C78.0762 27.8846 78.1382 27.8737 78.1937 27.8465C78.2493 27.8192 78.2961 27.7768 78.3288 27.7239C78.3615 27.6711 78.3788 27.6101 78.3787 27.5478V27.2483C78.3787 27.1615 78.4125 27.0781 78.4728 27.0161C78.5331 26.9541 78.6151 26.9184 78.7012 26.9168ZM75.1 29.4923C74.6508 29.4808 74.2043 29.5667 73.7908 29.7441C73.3773 29.9215 73.0063 30.1863 72.7029 30.5205C72.0675 31.2071 71.7498 32.0864 71.7498 33.1585C71.7218 34.0207 71.9832 34.8672 72.4917 35.561C72.8571 36.0334 73.3394 36.4005 73.8901 36.6254C74.4408 36.8503 75.0405 36.9251 75.629 36.8423C76.364 36.7491 77.0426 36.3967 77.5447 35.8477C78.1875 35.1579 78.509 34.2577 78.509 33.1472C78.509 32.0592 78.187 31.1783 77.5431 30.5045C77.2291 30.1724 76.8493 29.9107 76.4284 29.7363C76.0075 29.5619 75.5549 29.4787 75.1 29.4923Z" fill="black"/>
<path d="M95.2775 29.6282L93.2315 30.7622C93.17 30.7963 93.0993 30.8095 93.0299 30.8C92.9604 30.7905 92.8957 30.7587 92.8455 30.7093C92.481 30.3336 92.05 30.0299 91.5747 29.814C91.042 29.6045 90.4736 29.5027 89.902 29.5145C88.7371 29.5145 87.7951 29.8647 87.076 30.5652C86.3569 31.2656 85.9974 32.1626 85.9974 33.256C85.9974 34.3238 86.3437 35.1924 87.0363 35.8619C87.7289 36.5314 88.6386 36.8683 89.7654 36.8725C91.0499 36.8725 92.0724 36.4647 92.8328 35.6489C92.8862 35.5906 92.9586 35.5537 93.0368 35.5448C93.115 35.536 93.1937 35.5559 93.2585 35.6008L95.1774 36.9254C95.2157 36.9516 95.248 36.9857 95.2724 37.0253C95.2967 37.065 95.3126 37.1093 95.3189 37.1555C95.3251 37.2017 95.3218 37.2487 95.3089 37.2935C95.296 37.3383 95.274 37.3799 95.2442 37.4155C93.9299 38.9691 92.1296 39.7459 89.8432 39.7459C87.6627 39.7459 85.9545 39.0946 84.7187 37.7919C84.0099 37.0711 83.4784 36.1931 83.1666 35.228C82.8549 34.263 82.7715 33.2377 82.9233 32.2344C83.0751 31.231 83.4578 30.2774 84.0407 29.4499C84.6236 28.6225 85.3905 27.9441 86.2802 27.4692C87.3915 26.8772 88.6326 26.5765 89.8893 26.5947C91.0377 26.5766 92.1744 26.8306 93.2077 27.3362C94.0596 27.762 94.8048 28.377 95.3871 29.1349C95.4159 29.1733 95.436 29.2175 95.4461 29.2645C95.4562 29.3115 95.456 29.3602 95.4456 29.4071C95.4351 29.4541 95.4147 29.4982 95.3857 29.5363C95.3567 29.5745 95.3198 29.6059 95.2775 29.6282Z" fill="black"/>
<path d="M97.5954 22.0894H100.05C100.093 22.0891 100.136 22.0976 100.176 22.1142C100.216 22.1307 100.252 22.1552 100.283 22.186C100.313 22.2168 100.337 22.2535 100.354 22.2938C100.37 22.3341 100.379 22.3773 100.378 22.4209V31.2076C100.379 31.2747 100.399 31.3401 100.437 31.3953C100.474 31.4505 100.528 31.4929 100.59 31.5168C100.652 31.5408 100.72 31.5452 100.784 31.5294C100.849 31.5137 100.908 31.4786 100.952 31.4287L104.864 27.0273C104.895 26.9924 104.933 26.9645 104.975 26.9455C105.017 26.9264 105.063 26.9166 105.109 26.9168H108.127C108.191 26.9169 108.253 26.9355 108.306 26.9703C108.359 27.0052 108.401 27.0548 108.427 27.1132C108.453 27.1716 108.461 27.2363 108.452 27.2995C108.442 27.3627 108.414 27.4217 108.372 27.4694L103.722 32.686C103.667 32.7469 103.636 32.8266 103.636 32.9094C103.636 32.9922 103.667 33.0719 103.722 33.1329L108.99 38.8684C109.033 38.9158 109.062 38.9748 109.072 39.0382C109.082 39.1016 109.074 39.1668 109.049 39.2257C109.023 39.2846 108.981 39.3347 108.928 39.37C108.875 39.4052 108.812 39.424 108.748 39.4242H105.791C105.745 39.4248 105.7 39.4155 105.658 39.397C105.617 39.3785 105.579 39.3512 105.549 39.3169L100.942 34.2844C100.898 34.2355 100.839 34.2014 100.775 34.1864C100.71 34.1715 100.643 34.1764 100.582 34.2006C100.52 34.2248 100.467 34.2672 100.43 34.3221C100.392 34.3771 100.372 34.4421 100.372 34.5087V39.0926C100.372 39.1362 100.364 39.1793 100.347 39.2195C100.331 39.2598 100.306 39.2963 100.276 39.3271C100.245 39.3579 100.209 39.3823 100.169 39.399C100.129 39.4156 100.087 39.4242 100.043 39.4242H97.5954C97.5082 39.4242 97.4246 39.3893 97.3629 39.3271C97.3012 39.2649 97.2666 39.1806 97.2666 39.0926V22.4209C97.2666 22.333 97.3012 22.2486 97.3629 22.1865C97.4246 22.1243 97.5082 22.0894 97.5954 22.0894Z" fill="black"/>
<path d="M65.1006 9.01471H67.5565C67.6437 9.01471 67.7273 9.04965 67.789 9.11182C67.8506 9.174 67.8853 9.25833 67.8853 9.34626V21.1986C67.8853 21.2421 67.8768 21.2852 67.8602 21.3255C67.8437 21.3657 67.8195 21.4022 67.789 21.433C67.7584 21.4638 67.7222 21.4882 67.6823 21.5049C67.6424 21.5216 67.5996 21.5301 67.5565 21.5301H65.1006C65.0574 21.5301 65.0147 21.5216 64.9748 21.5049C64.9349 21.4882 64.8986 21.4638 64.8681 21.433C64.8376 21.4022 64.8133 21.3657 64.7968 21.3255C64.7803 21.2852 64.7718 21.2421 64.7718 21.1986V20.9359C64.7716 20.8738 64.7541 20.813 64.7212 20.7604C64.6884 20.7078 64.6416 20.6656 64.5861 20.6385C64.5306 20.6115 64.4687 20.6007 64.4075 20.6074C64.3462 20.6141 64.2881 20.638 64.2396 20.6764C63.8463 20.9991 63.4107 21.2654 62.945 21.4677C62.3145 21.7277 61.6389 21.8583 60.9578 21.8521C59.3555 21.8521 57.9698 21.2253 56.8006 19.9717C55.6315 18.7181 55.049 17.1608 55.0532 15.2997C55.0532 13.368 55.6188 11.7856 56.7498 10.5523C57.8808 9.31903 59.2549 8.70186 60.872 8.70079C61.592 8.69621 62.3052 8.84124 62.9672 9.12683C63.4277 9.32856 63.8586 9.59318 64.2476 9.91325C64.2958 9.95185 64.3539 9.97592 64.4152 9.9827C64.4764 9.98949 64.5383 9.9787 64.5937 9.9516C64.6491 9.92449 64.6959 9.88216 64.7285 9.82948C64.7611 9.77679 64.7783 9.71589 64.7781 9.65378V9.34626C64.7781 9.25943 64.8119 9.17606 64.8722 9.11406C64.9325 9.05206 65.0145 9.01639 65.1006 9.01471ZM61.501 11.5886C61.0516 11.5774 60.605 11.6633 60.1912 11.8407C59.7775 12.0181 59.4062 12.2827 59.1024 12.6169C58.467 13.3024 58.1493 14.1817 58.1493 15.2548C58.1493 16.3279 58.4733 17.2169 59.1214 17.9216C59.4225 18.2585 59.7916 18.5264 60.204 18.7074C60.6164 18.8883 61.0625 18.9781 61.5121 18.9707C61.9665 18.9826 62.4182 18.8969 62.8372 18.7193C63.2563 18.5418 63.633 18.2764 63.9426 17.9408C64.5875 17.2553 64.91 16.3568 64.91 15.2452C64.91 14.1582 64.5875 13.2768 63.9426 12.6008C63.6288 12.2689 63.2492 12.0072 62.8286 11.8328C62.408 11.6584 61.9556 11.5752 61.501 11.5886Z" fill="black"/>
<path d="M72.9492 4.51905V9.64438C72.9487 9.70662 72.9657 9.76774 72.9982 9.82066C73.0307 9.87359 73.0774 9.91616 73.1329 9.94346C73.1883 9.97076 73.2504 9.98168 73.3117 9.97495C73.3731 9.96823 73.4314 9.94413 73.4797 9.90545C73.873 9.5831 74.308 9.31637 74.7728 9.11263C75.4359 8.82704 76.1502 8.68202 76.8712 8.68658C78.4894 8.68658 79.8661 9.30376 81.0013 10.5381C82.1366 11.7725 82.7026 13.3549 82.6995 15.2854C82.6995 17.1477 82.117 18.705 80.9521 19.9575C79.7872 21.21 78.3978 21.8373 76.7838 21.8395C76.1001 21.8453 75.4221 21.7146 74.7887 21.4551C74.3206 21.2527 73.8823 20.9865 73.4861 20.6638C73.4377 20.6231 73.3787 20.5973 73.3161 20.5896C73.2536 20.5818 73.1901 20.5924 73.1334 20.6202C73.0767 20.6479 73.0291 20.6916 72.9965 20.7459C72.9638 20.8003 72.9473 20.863 72.9492 20.9265V21.1988C72.9464 21.2829 72.912 21.3627 72.853 21.4222C72.794 21.4817 72.7148 21.5163 72.6315 21.5191H70.1931C70.1499 21.5191 70.1071 21.5106 70.0672 21.4939C70.0274 21.4772 69.9911 21.4528 69.9606 21.422C69.93 21.3912 69.9058 21.3547 69.8893 21.3145C69.8728 21.2742 69.8643 21.2311 69.8643 21.1876V4.51905C69.8641 4.47545 69.8724 4.43224 69.8889 4.39192C69.9053 4.3516 69.9295 4.31497 69.9601 4.28414C69.9907 4.25331 70.027 4.2289 70.067 4.21231C70.107 4.19572 70.1498 4.18729 70.1931 4.1875H72.6315C72.7167 4.19041 72.7975 4.22662 72.8568 4.28849C72.9161 4.35035 72.9492 4.43302 72.9492 4.51905ZM76.2263 11.5888C75.7721 11.5756 75.3202 11.6588 74.8999 11.8329C74.4795 12.007 74.1002 12.2682 73.7863 12.5995C73.1403 13.2754 72.8173 14.1568 72.8173 15.2438C72.8173 16.3554 73.1403 17.2539 73.7863 17.9394C74.0976 18.2754 74.476 18.5409 74.8966 18.7185C75.3172 18.896 75.7704 18.9815 76.2263 18.9693C76.6773 18.9773 77.1248 18.8879 77.5388 18.7073C77.9527 18.5266 78.3236 18.2588 78.6265 17.9218C79.2757 17.2245 79.6003 16.3356 79.6003 15.255C79.6003 14.1744 79.2826 13.2951 78.6472 12.6171C78.3397 12.2815 77.9646 12.0162 77.5471 11.8388C77.1295 11.6615 76.6792 11.5762 76.2263 11.5888Z" fill="black"/>
<path d="M95.9257 11.7265L93.8797 12.8604C93.818 12.8946 93.747 12.908 93.6772 12.8984C93.6075 12.8889 93.5426 12.8571 93.4921 12.8076C93.1281 12.4312 92.697 12.1274 92.2213 11.9123C91.6889 11.7017 91.1203 11.5999 90.5486 11.6127C89.3837 11.6127 88.4422 11.963 87.7242 12.6634C87.0062 13.3639 86.6466 14.2608 86.6456 15.3542C86.6456 16.422 86.9919 17.2907 87.6845 17.9602C88.3771 18.6296 89.2862 18.9665 90.412 18.9708C91.6976 18.9708 92.7206 18.5629 93.481 17.7471C93.5331 17.6875 93.6054 17.6495 93.6838 17.6406C93.7622 17.6317 93.8411 17.6526 93.9051 17.6991L95.824 19.0237C95.8621 19.0499 95.8943 19.0839 95.9185 19.1234C95.9427 19.163 95.9584 19.2072 95.9645 19.2533C95.9706 19.2994 95.9671 19.3462 95.9541 19.3908C95.9412 19.4354 95.919 19.4768 95.8892 19.5122C94.5749 21.0636 92.7736 21.8394 90.485 21.8394C88.3024 21.8394 86.5937 21.188 85.3589 19.8854C84.6511 19.1642 84.1206 18.286 83.8098 17.321C83.499 16.3561 83.4166 15.3311 83.5691 14.3283C83.7217 13.3254 84.1049 12.3725 84.6883 11.5458C85.2716 10.7191 86.0387 10.0416 86.9283 9.56742C88.0391 8.97566 89.2797 8.67494 90.5359 8.69291C91.6844 8.67367 92.8213 8.92773 93.8543 9.43448C94.7062 9.86029 95.4514 10.4753 96.0337 11.2332C96.0625 11.2714 96.0827 11.3156 96.0929 11.3625C96.1031 11.4095 96.1031 11.4581 96.0928 11.505C96.0825 11.5519 96.0623 11.596 96.0334 11.6343C96.0046 11.6725 95.9678 11.704 95.9257 11.7265Z" fill="black"/>
<path d="M12.7365 7.29297L0.00927734 25.9396L12.7365 33.2336V7.29297Z" fill="white"/>
<path d="M24.8572 26.0645C24.9091 26.0343 24.9543 25.9935 24.9899 25.9448C25.0254 25.8961 25.0505 25.8405 25.0637 25.7815C25.0768 25.7225 25.0777 25.6614 25.0662 25.602C25.0547 25.5427 25.0311 25.4864 24.997 25.4366L12.5367 7.29297L0.0763319 25.552C0.0422979 25.6019 0.0189174 25.6584 0.00767054 25.7179C-0.00357631 25.7773 -0.00244475 25.8385 0.0109961 25.8976C0.024437 25.9566 0.0498939 26.0122 0.0857511 26.0607C0.121608 26.1093 0.167083 26.1499 0.219297 26.1798L12.5367 33.2384L24.8572 26.0645ZM10.7766 30.9352L1.82211 25.8098C1.77003 25.7796 1.7247 25.7388 1.68897 25.69C1.65323 25.6413 1.62786 25.5856 1.61444 25.5265C1.60102 25.4675 1.59984 25.4062 1.61098 25.3467C1.62211 25.2871 1.64532 25.2305 1.67914 25.1804L10.6336 12.0643C10.6855 11.9861 10.761 11.9267 10.849 11.8952C10.9369 11.8637 11.0326 11.8616 11.1219 11.8893C11.2111 11.917 11.2891 11.973 11.3442 12.049C11.3993 12.125 11.4287 12.2169 11.4279 12.311V30.5556C11.4281 30.6325 11.4082 30.7082 11.3702 30.7749C11.3321 30.8416 11.2773 30.897 11.2112 30.9355C11.1452 30.974 11.0702 30.9943 10.9939 30.9942C10.9175 30.9941 10.8426 30.9738 10.7766 30.9352Z" fill="#66DBBD"/>
<path d="M49.5981 9.06934H33.1411V26.2424C33.1411 27.4677 33.9449 28.693 35.5509 29.6283C38.7645 31.4991 43.97 31.4991 47.1868 29.6283C48.7944 28.693 49.5965 27.4677 49.5965 26.2424L49.5981 9.06934Z" fill="#F45241"/>
<path d="M41.3693 13.0189C39.2677 13.0189 37.2995 12.5481 35.8286 11.6912C34.4545 10.8903 33.6968 9.86046 33.6968 8.79055C33.6968 7.72064 34.4545 6.68916 35.8286 5.88833C37.2995 5.03304 39.2677 4.56055 41.3693 4.56055C43.4709 4.56055 45.4375 5.03304 46.9085 5.88833C48.2841 6.68916 49.0403 7.71903 49.0403 8.79055C49.0403 9.86206 48.2841 10.8903 46.9085 11.6912C45.4375 12.5497 43.4709 13.0189 41.3693 13.0189Z" fill="white"/>
<path d="M41.3698 5.12117C43.3745 5.12117 45.2442 5.56643 46.631 6.37367C47.8097 7.06079 48.4848 7.9401 48.4848 8.79058C48.4848 9.64107 47.8097 10.5204 46.631 11.2059C45.2442 12.0067 43.3745 12.4584 41.3698 12.4584C39.3651 12.4584 37.4954 12.0131 36.1071 11.2059C34.93 10.5204 34.2533 9.63947 34.2533 8.79058C34.2533 7.9417 34.93 7.06079 36.1071 6.37367C37.4954 5.57284 39.3635 5.12117 41.3698 5.12117ZM41.3698 4C39.2634 4 37.1587 4.46769 35.5511 5.40306C32.3391 7.27381 32.3391 10.3058 35.5511 12.1765C37.1587 13.1119 39.2634 13.5796 41.3698 13.5796C43.4762 13.5796 45.581 13.1119 47.187 12.1765C50.4005 10.3058 50.4005 7.27381 47.187 5.40306C45.581 4.46769 43.4746 4 41.3698 4Z" fill="#F45241"/>
<path d="M29.9009 29.5657L42.6249 22.1564L29.9041 14.7407L17.1689 22.1596L29.9009 29.5657Z" fill="white"/>
<path d="M42.404 21.7096L30.12 14.5485C30.0537 14.5103 29.9787 14.4902 29.9024 14.4902C29.826 14.4902 29.751 14.5103 29.6847 14.5485L17.388 21.7112C17.3221 21.7494 17.2672 21.8045 17.229 21.8708C17.1908 21.9372 17.1706 22.0125 17.1704 22.0892L17.1831 36.3905C17.1828 36.4673 17.2028 36.5428 17.2411 36.6092C17.2793 36.6757 17.3344 36.7306 17.4007 36.7685L29.6863 43.9311C29.7525 43.9696 29.8276 43.9899 29.904 43.9899C29.9804 43.9899 30.0554 43.9696 30.1216 43.9311L42.4056 36.7604C42.4712 36.7219 42.5256 36.6667 42.5635 36.6004C42.6014 36.5341 42.6214 36.459 42.6216 36.3825V22.0876C42.6214 22.0109 42.6012 21.9355 42.563 21.8692C42.5248 21.8029 42.47 21.7478 42.404 21.7096ZM30.12 15.8427L39.7496 21.4581C39.8156 21.4965 39.8704 21.5517 39.9085 21.6182C39.9466 21.6847 39.9666 21.7601 39.9666 21.8369C39.9666 21.9137 39.9466 21.9892 39.9085 22.0557C39.8704 22.1221 39.8156 22.1774 39.7496 22.2157L30.1152 27.8215C30.0494 27.8601 29.9746 27.8804 29.8984 27.8804C29.8222 27.8804 29.7474 27.8601 29.6816 27.8215L20.0409 22.2157C19.9749 22.1774 19.9201 22.1221 19.882 22.0557C19.8439 21.9892 19.8238 21.9137 19.8238 21.8369C19.8238 21.7601 19.8439 21.6847 19.882 21.6182C19.9201 21.5517 19.9749 21.4965 20.0409 21.4581L29.6832 15.8411C29.7497 15.8025 29.8251 15.7823 29.9018 15.7826C29.9785 15.7829 30.0538 15.8036 30.12 15.8427Z" fill="#282881"/>
</svg>
