<svg width="24" height="24" viewBox="0 0 24 24" fill="none" xmlns="http://www.w3.org/2000/svg">
<path d="M4.60714 5C3.71914 5 3 5.74667 3 6.66667V7.33333C3 8.25422 3.72 9 4.60714 9H19.3929C20.28 9 21 8.25333 21 7.33333V6.66667C21 5.74578 20.28 5 19.3929 5H4.60714Z" fill="#090A12"/>
<path fill-rule="evenodd" clip-rule="evenodd" d="M4 10L4.48469 17.6467C4.52496 18.283 4.82548 18.8809 5.32482 19.3184C5.82415 19.7558 6.48458 19.9996 7.1711 20H16.8262C17.513 20 18.1739 19.7564 18.6736 19.3189C19.1733 18.8815 19.4741 18.2832 19.5144 17.6467L20 10H4ZM9.5317 13.125C9.5317 12.9592 9.60262 12.8003 9.72886 12.6831C9.85511 12.5658 10.0263 12.5 10.2049 12.5H13.7951C13.9737 12.5 14.1449 12.5658 14.2711 12.6831C14.3974 12.8003 14.4683 12.9592 14.4683 13.125C14.4683 13.2908 14.3974 13.4497 14.2711 13.5669C14.1449 13.6842 13.9737 13.75 13.7951 13.75H10.2049C10.0263 13.75 9.85511 13.6842 9.72886 13.5669C9.60262 13.4497 9.5317 13.2908 9.5317 13.125Z" fill="#090A12"/>
</svg>
