<svg width="24" height="24" viewBox="0 0 24 24" fill="none" xmlns="http://www.w3.org/2000/svg">
<path d="M6.59091 3C5.71188 3 5 3.72 5 4.60714V19.3929C5 20.28 5.71273 21 6.59091 21H17.4091C18.2873 21 19 20.28 19 19.3929V12.6429C19 11.7904 18.6648 10.9728 18.0681 10.37C17.4714 9.76722 16.6621 9.42857 15.8182 9.42857H14.2273C13.8053 9.42857 13.4007 9.25925 13.1023 8.95785C12.804 8.65645 12.6364 8.24767 12.6364 7.82143V6.21429C12.6364 5.3618 12.3011 4.54424 11.7044 3.94144C11.1077 3.33865 10.2984 3 9.45455 3H6.59091Z" fill="#090A12"/>
<path d="M13 3C13.7122 3.82117 14.1036 4.87208 14.1021 5.95907V7.57475C14.1021 7.75312 14.2469 7.89789 14.4252 7.89789H16.0409C17.1279 7.89638 18.1788 8.28779 19 9C18.6209 7.55813 17.8656 6.24283 16.8114 5.18861C15.7572 4.1344 14.4419 3.37912 13 3Z" fill="#090A12"/>
</svg>
