<svg width="24" height="24" viewBox="0 0 24 24" fill="none" xmlns="http://www.w3.org/2000/svg">
<path fill-rule="evenodd" clip-rule="evenodd" d="M5.35754 20.9039C5.72187 20.9683 6.09135 21.0004 6.46154 21C7.63151 21.0015 8.77808 20.6781 9.76892 20.067C10.4834 20.232 11.2311 20.32 12 20.32C16.9126 20.32 21 16.7205 21 12.16C21 7.59947 16.9126 4 12 4C7.08738 4 3 7.59947 3 12.16C3 14.3442 3.94615 16.3189 5.46831 17.7741C5.68246 17.979 5.724 18.1621 5.70277 18.2664C5.58869 18.8304 5.33008 19.3565 4.95138 19.795C4.87277 19.8862 4.81999 19.9961 4.79837 20.1137C4.77674 20.2312 4.78704 20.3523 4.82822 20.4647C4.86939 20.5772 4.94 20.6769 5.03292 20.754C5.12585 20.8311 5.23781 20.8828 5.35754 20.9039ZM8.53846 11.14C8.26304 11.14 7.99891 11.2475 7.80416 11.4387C7.60941 11.63 7.5 11.8895 7.5 12.16C7.5 12.4305 7.60941 12.69 7.80416 12.8812C7.99891 13.0725 8.26304 13.18 8.53846 13.18C8.81388 13.18 9.07802 13.0725 9.27276 12.8812C9.46751 12.69 9.57692 12.4305 9.57692 12.16C9.57692 11.8895 9.46751 11.63 9.27276 11.4387C9.07802 11.2475 8.81388 11.14 8.53846 11.14ZM10.9615 12.16C10.9615 11.8895 11.0709 11.63 11.2657 11.4387C11.4604 11.2475 11.7246 11.14 12 11.14C12.2754 11.14 12.5396 11.2475 12.7343 11.4387C12.9291 11.63 13.0385 11.8895 13.0385 12.16C13.0385 12.4305 12.9291 12.69 12.7343 12.8812C12.5396 13.0725 12.2754 13.18 12 13.18C11.7246 13.18 11.4604 13.0725 11.2657 12.8812C11.0709 12.69 10.9615 12.4305 10.9615 12.16ZM15.4615 11.14C15.1861 11.14 14.922 11.2475 14.7272 11.4387C14.5325 11.63 14.4231 11.8895 14.4231 12.16C14.4231 12.4305 14.5325 12.69 14.7272 12.8812C14.922 13.0725 15.1861 13.18 15.4615 13.18C15.737 13.18 16.0011 13.0725 16.1958 12.8812C16.3906 12.69 16.5 12.4305 16.5 12.16C16.5 11.8895 16.3906 11.63 16.1958 11.4387C16.0011 11.2475 15.737 11.14 15.4615 11.14Z" fill="#090A12"/>
</svg>
