<svg width="24" height="24" viewBox="0 0 24 24" fill="none" xmlns="http://www.w3.org/2000/svg">
<path fill-rule="evenodd" clip-rule="evenodd" d="M7.54917 6C7.54917 4.80653 8.02327 3.66193 8.86719 2.81802C9.7111 1.97411 10.8557 1.5 12.0492 1.5C13.2426 1.5 14.3872 1.97411 15.2311 2.81802C16.0751 3.66193 16.5492 4.80653 16.5492 6C16.5492 7.19347 16.0751 8.33807 15.2311 9.18198C14.3872 10.0259 13.2426 10.5 12.0492 10.5C10.8557 10.5 9.7111 10.0259 8.86719 9.18198C8.02327 8.33807 7.54917 7.19347 7.54917 6ZM3.80017 20.105C3.83389 17.9395 4.71781 15.8741 6.26113 14.3546C7.80445 12.8351 9.88338 11.9834 12.0492 11.9834C14.215 11.9834 16.2939 12.8351 17.8372 14.3546C19.3805 15.8741 20.2644 17.9395 20.2982 20.105C20.3008 20.2508 20.2608 20.3942 20.1832 20.5176C20.1056 20.641 19.9937 20.7392 19.8612 20.8C17.4103 21.9237 14.7453 22.5037 12.0492 22.5C9.26317 22.5 6.61617 21.892 4.23717 20.8C4.10465 20.7392 3.99274 20.641 3.91513 20.5176C3.83752 20.3942 3.79757 20.2508 3.80017 20.105Z" fill="#44454B"/>
</svg>
