<svg width="48" height="48" viewBox="0 0 48 48" fill="none" xmlns="http://www.w3.org/2000/svg">
<rect width="48" height="48" rx="10" fill="#F2F3F5"/>
<path fill-rule="evenodd" clip-rule="evenodd" d="M19.2798 19.7198C19.4203 19.8605 19.4992 20.0511 19.4992 20.2498C19.4992 20.4486 19.4203 20.6392 19.2798 20.7798L16.8098 23.2498H32.9998C33.1987 23.2498 33.3895 23.3288 33.5302 23.4695C33.6708 23.6102 33.7498 23.8009 33.7498 23.9998C33.7498 24.1987 33.6708 24.3895 33.5302 24.5302C33.3895 24.6708 33.1987 24.7498 32.9998 24.7498H16.8098L19.2798 27.2198C19.3535 27.2885 19.4126 27.3713 19.4536 27.4633C19.4946 27.5553 19.5166 27.6546 19.5184 27.7553C19.5202 27.856 19.5017 27.956 19.464 28.0494C19.4262 28.1428 19.3701 28.2276 19.2989 28.2989C19.2276 28.3701 19.1428 28.4262 19.0494 28.464C18.956 28.5017 18.856 28.5202 18.7553 28.5184C18.6546 28.5166 18.5553 28.4946 18.4633 28.4536C18.3713 28.4126 18.2885 28.3535 18.2198 28.2798L14.4698 24.5298C14.3294 24.3892 14.2505 24.1986 14.2505 23.9998C14.2505 23.8011 14.3294 23.6105 14.4698 23.4698L18.2198 19.7198C18.3605 19.5794 18.5511 19.5005 18.7498 19.5005C18.9486 19.5005 19.1392 19.5794 19.2798 19.7198Z" fill="#44454B"/>
</svg>
