<svg width="460" height="360" viewBox="0 0 460 360" fill="none" xmlns="http://www.w3.org/2000/svg">
<g opacity="0.16">
<path fill-rule="evenodd" clip-rule="evenodd" d="M230 130C213.431 130 200 143.431 200 160C200 176.569 213.431 190 230 190C246.569 190 260 176.569 260 160C260 143.431 246.569 130 230 130ZM220 160C220 154.477 224.477 150 230 150C235.523 150 240 154.477 240 160C240 165.523 235.523 170 230 170C224.477 170 220 165.523 220 160Z" fill="white"/>
<path fill-rule="evenodd" clip-rule="evenodd" d="M230 90C191.34 90 160 121.34 160 160C160 198.66 191.34 230 230 230C268.66 230 300 198.66 300 160C300 121.34 268.66 90 230 90ZM180 160C180 132.386 202.386 110 230 110C257.614 110 280 132.386 280 160C280 187.614 257.614 210 230 210C202.386 210 180 187.614 180 160Z" fill="white"/>
<path fill-rule="evenodd" clip-rule="evenodd" d="M120 160C120 99.2487 169.249 50 230 50C290.751 50 340 99.2487 340 160C340 220.751 290.751 270 230 270C169.249 270 120 220.751 120 160ZM230 70C180.294 70 140 110.294 140 160C140 209.706 180.294 250 230 250C279.706 250 320 209.706 320 160C320 110.294 279.706 70 230 70Z" fill="white"/>
<path fill-rule="evenodd" clip-rule="evenodd" d="M230 10C147.157 10 80 77.1573 80 160C80 242.843 147.157 310 230 310C312.843 310 380 242.843 380 160C380 77.1573 312.843 10 230 10ZM100 160C100 88.203 158.203 30 230 30C301.797 30 360 88.203 360 160C360 231.797 301.797 290 230 290C158.203 290 100 231.797 100 160Z" fill="white"/>
<path fill-rule="evenodd" clip-rule="evenodd" d="M40 160C40 55.0659 125.066 -30 230 -30C334.934 -30 420 55.0659 420 160C420 264.934 334.934 350 230 350C125.066 350 40 264.934 40 160ZM230 -10C136.112 -10 60 66.1116 60 160C60 253.888 136.112 330 230 330C323.888 330 400 253.888 400 160C400 66.1116 323.888 -10 230 -10Z" fill="white"/>
<path fill-rule="evenodd" clip-rule="evenodd" d="M230 -70C102.975 -70 0 32.9745 0 160C0 287.025 102.975 390 230 390C357.025 390 460 287.025 460 160C460 32.9745 357.025 -70 230 -70ZM20 160C20 44.0202 114.02 -50 230 -50C345.98 -50 440 44.0202 440 160C440 275.98 345.98 370 230 370C114.02 370 20 275.98 20 160Z" fill="white"/>
</g>
</svg>
