<svg width="34" height="34" viewBox="0 0 34 34" fill="none" xmlns="http://www.w3.org/2000/svg">
<rect width="34" height="34" rx="10" fill="#F2F3F5"/>
<path fill-rule="evenodd" clip-rule="evenodd" d="M14.7387 12.0943C14.5983 12.235 14.5194 12.4256 14.5194 12.6243C14.5194 12.8231 14.5983 13.0137 14.7387 13.1543L18.4587 16.8743L14.7387 20.5943C14.665 20.663 14.6059 20.7458 14.5649 20.8378C14.5239 20.9298 14.5019 21.0291 14.5001 21.1298C14.4983 21.2305 14.5169 21.3305 14.5546 21.4239C14.5923 21.5173 14.6485 21.6022 14.7197 21.6734C14.7909 21.7446 14.8757 21.8007 14.9691 21.8385C15.0625 21.8762 15.1625 21.8947 15.2632 21.8929C15.3639 21.8912 15.4632 21.8691 15.5552 21.8281C15.6472 21.7871 15.73 21.728 15.7987 21.6543L20.0487 17.4043C20.1892 17.2637 20.268 17.0731 20.268 16.8743C20.268 16.6756 20.1892 16.485 20.0487 16.3443L15.7987 12.0943C15.6581 11.9539 15.4675 11.875 15.2687 11.875C15.07 11.875 14.8793 11.9539 14.7387 12.0943Z" fill="#090A12"/>
</svg>
