<svg width="40" height="40" viewBox="0 0 40 40" fill="none" xmlns="http://www.w3.org/2000/svg">
<circle cx="20" cy="20" r="20" fill="#4269F5"/>
<path d="M11 17.3076V24.243C11 24.9742 11.2593 25.6754 11.721 26.1924C12.1826 26.7095 12.8087 26.9999 13.4615 26.9999H25.7692C26.4221 26.9999 27.0482 26.7095 27.5098 26.1924C27.9714 25.6754 28.2308 24.9742 28.2308 24.243V17.3076L20.9052 21.7094C20.5173 21.9767 20.0708 22.1182 19.6154 22.1182C19.1599 22.1182 18.7134 21.9767 18.3255 21.7094L11 17.3076Z" fill="white"/>
<path d="M28.2308 15.5439V15.4166C28.2308 14.7757 27.9714 14.161 27.5098 13.7078C27.0482 13.2546 26.4221 13 25.7692 13H13.4615C12.8087 13 12.1826 13.2546 11.721 13.7078C11.2593 14.161 11 14.7757 11 15.4166V15.5439L18.9705 20.3593C19.1644 20.4764 19.3877 20.5385 19.6154 20.5385C19.8431 20.5385 20.0664 20.4764 20.2603 20.3593L28.2308 15.5439Z" fill="white"/>
</svg>
