<svg width="40" height="40" viewBox="0 0 40 40" fill="none" xmlns="http://www.w3.org/2000/svg">
<circle cx="20" cy="20" r="20" fill="#4269F5"/>
<path fill-rule="evenodd" clip-rule="evenodd" d="M12 14.2857C12 13.6795 12.2408 13.0981 12.6695 12.6695C13.0981 12.2408 13.6795 12 14.2857 12H15.331C15.9863 12 16.5577 12.4465 16.717 13.0819L17.5589 16.4518C17.6271 16.7246 17.6133 17.0114 17.5192 17.2764C17.4252 17.5413 17.255 17.7726 17.0301 17.9413L16.045 18.6804C15.9421 18.7573 15.92 18.8701 15.949 18.9486C16.379 20.118 17.058 21.18 17.939 22.061C18.82 22.942 19.882 23.621 21.0514 24.051C21.1299 24.08 21.2419 24.0579 21.3196 23.955L22.0587 22.9699C22.2274 22.745 22.4587 22.5748 22.7236 22.4808C22.9886 22.3867 23.2754 22.3729 23.5482 22.4411L26.9181 23.283C27.5535 23.4423 28 24.0137 28 24.6697V25.7143C28 26.3205 27.7592 26.9019 27.3305 27.3305C26.9019 27.7592 26.3205 28 25.7143 28H24C17.373 28 12 22.627 12 16V14.2857Z" fill="white"/>
</svg>
