<svg width="40" height="40" viewBox="0 0 40 40" fill="none" xmlns="http://www.w3.org/2000/svg">
<circle cx="20" cy="20" r="20" fill="#4269F5"/>
<g clip-path="url(#clip0_150_12021)">
<path d="M30 19.7424C30 25.1231 25.6047 29.4849 20.1818 29.4849C18.4602 29.4849 16.8429 29.0449 15.4358 28.2727L10 30L11.7722 24.7729C10.8782 23.3049 10.3633 21.5831 10.3633 19.7424C10.3633 14.3618 14.7591 10 20.1818 10C25.6051 10 30 14.3618 30 19.7424ZM20.1818 11.5516C15.6298 11.5516 11.9271 15.226 11.9271 19.7424C11.9271 21.5347 12.5113 23.1944 13.4996 24.5447L12.4682 27.5867L15.6404 26.5784C16.9438 27.4342 18.5051 27.9333 20.182 27.9333C24.7333 27.9333 28.4367 24.2593 28.4367 19.7429C28.4367 15.2264 24.7336 11.5516 20.1818 11.5516ZM25.1398 21.9862C25.0791 21.8869 24.9189 21.8269 24.6784 21.7076C24.4376 21.5882 23.254 21.0102 23.034 20.9309C22.8133 20.8513 22.6524 20.8113 22.4922 21.0502C22.332 21.2893 21.8707 21.8269 21.73 21.9862C21.5896 22.146 21.4493 22.166 21.2084 22.0464C20.968 21.9271 20.1927 21.6747 19.2733 20.8613C18.558 20.2284 18.0749 19.4471 17.9344 19.2078C17.7942 18.9689 17.9198 18.8398 18.04 18.7209C18.1484 18.6138 18.2809 18.442 18.4011 18.3027C18.5218 18.1631 18.5618 18.0638 18.6416 17.9042C18.7222 17.7449 18.682 17.6056 18.6216 17.4858C18.5616 17.3664 18.0798 16.1913 17.8793 15.7131C17.6789 15.2353 17.4787 15.3149 17.338 15.3149C17.1978 15.3149 17.0371 15.2949 16.8767 15.2949C16.7162 15.2949 16.4553 15.3547 16.2347 15.5936C16.0142 15.8327 15.3927 16.4104 15.3927 17.5853C15.3927 18.7604 16.2547 19.8958 16.3753 20.0549C16.4956 20.214 18.0398 22.7038 20.4864 23.66C22.9333 24.6158 22.9333 24.2969 23.3747 24.2569C23.8156 24.2171 24.7982 23.6793 24.9996 23.122C25.1996 22.5638 25.1996 22.0858 25.1398 21.9862Z" fill="white"/>
</g>
<defs>
<clipPath id="clip0_150_12021">
<rect width="20" height="20" fill="white" transform="translate(10 10)"/>
</clipPath>
</defs>
</svg>
