<svg width="28" height="28" viewBox="0 0 28 28" fill="none" xmlns="http://www.w3.org/2000/svg">
<rect width="28" height="28" rx="10" fill="#F2F3F5"/>
<path fill-rule="evenodd" clip-rule="evenodd" d="M9.21934 15.5294C9.35997 15.6698 9.55059 15.7487 9.74934 15.7487C9.94809 15.7487 10.1387 15.6698 10.2793 15.5294L13.9993 11.8094L17.7193 15.5294C17.788 15.603 17.8708 15.6621 17.9628 15.7031C18.0548 15.7441 18.1541 15.7662 18.2548 15.7679C18.3555 15.7697 18.4555 15.7512 18.5489 15.7135C18.6423 15.6758 18.7272 15.6196 18.7984 15.5484C18.8696 15.4772 18.9257 15.3923 18.9635 15.299C19.0012 15.2056 19.0197 15.1055 19.0179 15.0048C19.0162 14.9041 18.9941 14.8048 18.9531 14.7128C18.9121 14.6208 18.853 14.538 18.7793 14.4694L14.5293 10.2194C14.3887 10.0789 14.1981 10 13.9993 10C13.8006 10 13.61 10.0789 13.4693 10.2194L9.21934 14.4694C9.07889 14.61 9 14.8006 9 14.9994C9 15.1981 9.07889 15.3887 9.21934 15.5294Z" fill="#090A12"/>
</svg>
